<?xml version="1.0" encoding="UTF-8" standalone="no"?>
<!-- Created with Inkscape (http://www.inkscape.org/) -->

<svg
   xmlns="http://www.w3.org/2000/svg"
      version="1.1"
   width="360"
   height="540"
   id="svg20298">
  <defs
     id="defs20300">
    
    
    
    
    
    
  </defs>
  <g
     transform="translate(-151.42857,-248.08929)"
     id="layer1">
    <g
       transform="translate(151.42857,-264.27289)"
       id="g3197">
      <rect
         width="359"
         height="539"
         rx="29.944447"
         ry="29.944447"
         x="0.5"
         y="512.86218"
         id="rect6472-38"
         style="fill:#ffffff;stroke:#000000;stroke-width:0.99999976" />
      <path
         d="m 180,737.36218 c 0,0 6,15 13,25 7,10 17,20 17,20 0,0 -10,10 -17,20 -7,10 -13,25 -13,25 0,0 -6,-15 -13,-25 -7,-10 -17,-20 -17,-20 0,0 10,-10 17,-20 7,-10 13,-25 13,-25"
         id="path3204-24-49"
         style="fill:#ff5555;stroke:none" />
      <path
         d="m 27.5,542.36218 -9,50 5,0 2.34375,-13 8.3125,0 2.34375,13 5,0 -9,-50 -5,0 z m 2.5,13.90625 3.25,18.09375 -6.5,0 3.25,-18.09375 z"
         id="path3497-2"
         style="fill:#ff5555;stroke:none" />
      <path
         d="m 327.5,1022.3622 -9,-50.00004 5,0 2.34375,13 8.3125,0 2.34375,-13 5,0 -9,50.00004 -5,0 z m 2.5,-13.9063 3.25,-18.09372 -6.5,0 3.25,18.09372 z"
         id="path3497-5-6"
         style="fill:#ff5555;stroke:none" />
      <path
         d="m 30,602.36218 c 0,0 3,7.5 6.5,12.5 3.5,5 8.5,10 8.5,10 0,0 -5,5 -8.5,10 -3.5,5 -6.5,12.5 -6.5,12.5 0,0 -3,-7.5 -6.5,-12.5 -3.5,-5 -8.5,-10 -8.5,-10 0,0 5,-5 8.5,-10 3.5,-5 6.5,-12.5 6.5,-12.5"
         id="path3204-24-1-57"
         style="fill:#ff5555;stroke:none" />
      <path
         d="m 330,917.36218 c 0,0 3,7.5 6.5,12.5 3.5,5 8.5,10 8.5,10 0,0 -5,5 -8.5,10 -3.5,5 -6.5,12.5 -6.5,12.5 0,0 -3,-7.5 -6.5,-12.5 -3.5,-5 -8.5,-10 -8.5,-10 0,0 5,-5 8.5,-10 3.5,-5 6.5,-12.5 6.5,-12.5"
         id="path3204-24-1-7"
         style="fill:#ff5555;stroke:none" />
    </g>
  </g>
</svg>
